<?xml version="1.0" encoding="UTF-8"?>
<svg width="383px" height="56px" viewBox="0 0 383 56" version="1.1" xmlns="http://www.w3.org/2000/svg" xmlns:xlink="http://www.w3.org/1999/xlink">
    <!-- Generator: Sketch 49.3 (51167) - http://www.bohemiancoding.com/sketch -->
    <title>Group</title>
    <desc>Created with Sketch.</desc>
    <defs></defs>
    <g id="Page-1" stroke="none" stroke-width="1" fill="none" fill-rule="evenodd">
        <g id="Group">
            <path d="M39.808,3.9923984 C39.808,6.50974432 38.5493459,7.7683984 36.032,7.7683984 C33.5146541,7.7683984 32.256,6.50974432 32.256,3.9923984 C32.256,1.47505248 33.5146541,0.2163984 36.032,0.2163984 C38.5493459,0.2163984 39.808,1.47505248 39.808,3.9923984 Z M31.744,3.9923984 C31.744,6.50974432 30.4853459,7.7683984 27.968,7.7683984 C25.4506541,7.7683984 24.192,6.50974432 24.192,3.9923984 C24.192,1.47505248 25.4506541,0.2163984 27.968,0.2163984 C30.4853459,0.2163984 31.744,1.47505248 31.744,3.9923984 Z M23.68,3.9923984 C23.68,6.50974432 22.4213459,7.7683984 19.904,7.7683984 C17.3866541,7.7683984 16.128,6.50974432 16.128,3.9923984 C16.128,1.47505248 17.3866541,0.2163984 19.904,0.2163984 C22.4213459,0.2163984 23.68,1.47505248 23.68,3.9923984 Z M15.616,3.9923984 C15.616,6.50974432 14.3573459,7.7683984 11.84,7.7683984 C9.32265408,7.7683984 8.064,6.50974432 8.064,3.9923984 C8.064,1.47505248 9.32265408,0.2163984 11.84,0.2163984 C14.3573459,0.2163984 15.616,1.47505248 15.616,3.9923984 Z M39.232,28.1843984 C39.232,30.3177424 38.165344,31.3843984 36.032,31.3843984 C33.898656,31.3843984 32.832,30.3177424 32.832,28.1843984 C32.832,26.0510544 33.898656,24.9843984 36.032,24.9843984 C38.165344,24.9843984 39.232,26.0510544 39.232,28.1843984 Z M7.552,3.9923984 C7.552,6.50974432 6.29334592,7.7683984 3.776,7.7683984 C1.25865408,7.7683984 0,6.50974432 0,3.9923984 C0,1.47505248 1.25865408,0.2163984 3.776,0.2163984 C6.29334592,0.2163984 7.552,1.47505248 7.552,3.9923984 Z M31.168,28.1843984 C31.168,30.3177424 30.101344,31.3843984 27.968,31.3843984 C25.834656,31.3843984 24.768,30.3177424 24.768,28.1843984 C24.768,26.0510544 25.834656,24.9843984 27.968,24.9843984 C30.101344,24.9843984 31.168,26.0510544 31.168,28.1843984 Z M7.36,12.0563984 C7.36,14.4457437 6.16534528,15.6403984 3.776,15.6403984 C1.38665472,15.6403984 0.192,14.4457437 0.192,12.0563984 C0.192,9.66705312 1.38665472,8.4723984 3.776,8.4723984 C6.16534528,8.4723984 7.36,9.66705312 7.36,12.0563984 Z M23.104,28.1843984 C23.104,30.3177424 22.037344,31.3843984 19.904,31.3843984 C17.770656,31.3843984 16.704,30.3177424 16.704,28.1843984 C16.704,26.0510544 17.770656,24.9843984 19.904,24.9843984 C22.037344,24.9843984 23.104,26.0510544 23.104,28.1843984 Z M7.168,20.1203984 C7.168,22.381743 6.03734464,23.5123984 3.776,23.5123984 C1.51465536,23.5123984 0.384,22.381743 0.384,20.1203984 C0.384,17.8590538 1.51465536,16.7283984 3.776,16.7283984 C6.03734464,16.7283984 7.168,17.8590538 7.168,20.1203984 Z M15.04,28.1843984 C15.04,30.3177424 13.973344,31.3843984 11.84,31.3843984 C9.706656,31.3843984 8.64,30.3177424 8.64,28.1843984 C8.64,26.0510544 9.706656,24.9843984 11.84,24.9843984 C13.973344,24.9843984 15.04,26.0510544 15.04,28.1843984 Z M38.656,52.3763984 C38.656,54.1684074 37.7813421,55.0643984 36.032,55.0643984 C34.2826579,55.0643984 33.408,54.1684074 33.408,52.3763984 C33.408,50.6270563 34.2826579,49.7523984 36.032,49.7523984 C37.7813421,49.7523984 38.656,50.6270563 38.656,52.3763984 Z M6.976,28.1843984 C6.976,30.3177424 5.909344,31.3843984 3.776,31.3843984 C1.642656,31.3843984 0.576,30.3177424 0.576,28.1843984 C0.576,26.0510544 1.642656,24.9843984 3.776,24.9843984 C5.909344,24.9843984 6.976,26.0510544 6.976,28.1843984 Z M30.592,52.3763984 C30.592,54.1684074 29.7173421,55.0643984 27.968,55.0643984 C26.2186579,55.0643984 25.344,54.1684074 25.344,52.3763984 C25.344,50.6270563 26.2186579,49.7523984 27.968,49.7523984 C29.7173421,49.7523984 30.592,50.6270563 30.592,52.3763984 Z M6.784,36.2483984 C6.784,38.2537418 5.78134336,39.2563984 3.776,39.2563984 C1.77065664,39.2563984 0.768,38.2537418 0.768,36.2483984 C0.768,34.243055 1.77065664,33.2403984 3.776,33.2403984 C5.78134336,33.2403984 6.784,34.243055 6.784,36.2483984 Z M22.528,52.3763984 C22.528,54.1684074 21.6533421,55.0643984 19.904,55.0643984 C18.1546579,55.0643984 17.28,54.1684074 17.28,52.3763984 C17.28,50.6270563 18.1546579,49.7523984 19.904,49.7523984 C21.6533421,49.7523984 22.528,50.6270563 22.528,52.3763984 Z M6.592,44.3123984 C6.592,46.1897411 5.65334272,47.1283984 3.776,47.1283984 C1.89865728,47.1283984 0.96,46.1897411 0.96,44.3123984 C0.96,42.4350557 1.89865728,41.4963984 3.776,41.4963984 C5.65334272,41.4963984 6.592,42.4350557 6.592,44.3123984 Z M14.464,52.3763984 C14.464,54.1684074 13.5893421,55.0643984 11.84,55.0643984 C10.0906579,55.0643984 9.216,54.1684074 9.216,52.3763984 C9.216,50.6270563 10.0906579,49.7523984 11.84,49.7523984 C13.5893421,49.7523984 14.464,50.6270563 14.464,52.3763984 Z M6.4,52.3763984 C6.4,54.1684074 5.52534208,55.0643984 3.776,55.0643984 C2.02665792,55.0643984 1.152,54.1684074 1.152,52.3763984 C1.152,50.6270563 2.02665792,49.7523984 3.776,49.7523984 C5.52534208,49.7523984 6.4,50.6270563 6.4,52.3763984 Z M69.76,3.9923984 C69.76,6.50974432 68.5013459,7.7683984 65.984,7.7683984 C63.4666541,7.7683984 62.208,6.50974432 62.208,3.9923984 C62.208,1.47505248 63.4666541,0.2163984 65.984,0.2163984 C68.5013459,0.2163984 69.76,1.47505248 69.76,3.9923984 Z M61.696,3.9923984 C61.696,6.50974432 60.4373459,7.7683984 57.92,7.7683984 C55.4026541,7.7683984 54.144,6.50974432 54.144,3.9923984 C54.144,1.47505248 55.4026541,0.2163984 57.92,0.2163984 C60.4373459,0.2163984 61.696,1.47505248 61.696,3.9923984 Z M69.568,12.0563984 C69.568,14.4457437 68.3733453,15.6403984 65.984,15.6403984 C63.5946547,15.6403984 62.4,14.4457437 62.4,12.0563984 C62.4,9.66705312 63.5946547,8.4723984 65.984,8.4723984 C68.3733453,8.4723984 69.568,9.66705312 69.568,12.0563984 Z M69.376,20.1203984 C69.376,22.381743 68.2453446,23.5123984 65.984,23.5123984 C63.7226554,23.5123984 62.592,22.381743 62.592,20.1203984 C62.592,17.8590538 63.7226554,16.7283984 65.984,16.7283984 C68.2453446,16.7283984 69.376,17.8590538 69.376,20.1203984 Z M69.184,28.1843984 C69.184,30.3177424 68.117344,31.3843984 65.984,31.3843984 C63.850656,31.3843984 62.784,30.3177424 62.784,28.1843984 C62.784,26.0510544 63.850656,24.9843984 65.984,24.9843984 C68.117344,24.9843984 69.184,26.0510544 69.184,28.1843984 Z M68.992,36.2483984 C68.992,38.2537418 67.9893434,39.2563984 65.984,39.2563984 C63.9786566,39.2563984 62.976,38.2537418 62.976,36.2483984 C62.976,34.243055 63.9786566,33.2403984 65.984,33.2403984 C67.9893434,33.2403984 68.992,34.243055 68.992,36.2483984 Z M68.8,44.3123984 C68.8,46.1897411 67.8613427,47.1283984 65.984,47.1283984 C64.1066573,47.1283984 63.168,46.1897411 63.168,44.3123984 C63.168,42.4350557 64.1066573,41.4963984 65.984,41.4963984 C67.8613427,41.4963984 68.8,42.4350557 68.8,44.3123984 Z M76.672,52.3763984 C76.672,54.1684074 75.7973421,55.0643984 74.048,55.0643984 C72.2986579,55.0643984 71.424,54.1684074 71.424,52.3763984 C71.424,50.6270563 72.2986579,49.7523984 74.048,49.7523984 C75.7973421,49.7523984 76.672,50.6270563 76.672,52.3763984 Z M68.608,52.3763984 C68.608,54.1684074 67.7333421,55.0643984 65.984,55.0643984 C64.2346579,55.0643984 63.36,54.1684074 63.36,52.3763984 C63.36,50.6270563 64.2346579,49.7523984 65.984,49.7523984 C67.7333421,49.7523984 68.608,50.6270563 68.608,52.3763984 Z M60.544,52.3763984 C60.544,54.1684074 59.6693421,55.0643984 57.92,55.0643984 C56.1706579,55.0643984 55.296,54.1684074 55.296,52.3763984 C55.296,50.6270563 56.1706579,49.7523984 57.92,49.7523984 C59.6693421,49.7523984 60.544,50.6270563 60.544,52.3763984 Z M116.784,20.6083984 C116.784,22.869743 115.653345,24.0003984 113.392,24.0003984 C111.130655,24.0003984 110,22.869743 110,20.6083984 C110,18.3470538 111.130655,17.2163984 113.392,17.2163984 C115.653345,17.2163984 116.784,18.3470538 116.784,20.6083984 Z M125.4,28.4163984 C125.4,30.5497424 124.333344,31.6163984 122.2,31.6163984 C120.066656,31.6163984 119,30.5497424 119,28.4163984 C119,26.2830544 120.066656,25.2163984 122.2,25.2163984 C124.333344,25.2163984 125.4,26.2830544 125.4,28.4163984 Z M108.784,20.6083984 C108.784,22.869743 107.653345,24.0003984 105.392,24.0003984 C103.130655,24.0003984 102,22.869743 102,20.6083984 C102,18.3470538 103.130655,17.2163984 105.392,17.2163984 C107.653345,17.2163984 108.784,18.3470538 108.784,20.6083984 Z M125.016,36.2243984 C125.016,38.2297418 124.013343,39.2323984 122.008,39.2323984 C120.002657,39.2323984 119,38.2297418 119,36.2243984 C119,34.219055 120.002657,33.2163984 122.008,33.2163984 C124.013343,33.2163984 125.016,34.219055 125.016,36.2243984 Z M100.784,20.6083984 C100.784,22.869743 99.6533446,24.0003984 97.392,24.0003984 C95.1306554,24.0003984 94,22.869743 94,20.6083984 C94,18.3470538 95.1306554,17.2163984 97.392,17.2163984 C99.6533446,17.2163984 100.784,18.3470538 100.784,20.6083984 Z M117.016,36.2243984 C117.016,38.2297418 116.013343,39.2323984 114.008,39.2323984 C112.002657,39.2323984 111,38.2297418 111,36.2243984 C111,34.219055 112.002657,33.2163984 114.008,33.2163984 C116.013343,33.2163984 117.016,34.219055 117.016,36.2243984 Z M109.016,36.2243984 C109.016,38.2297418 108.013343,39.2323984 106.008,39.2323984 C104.002657,39.2323984 103,38.2297418 103,36.2243984 C103,34.219055 104.002657,33.2163984 106.008,33.2163984 C108.013343,33.2163984 109.016,34.219055 109.016,36.2243984 Z M92.4,28.4163984 C92.4,30.5497424 91.333344,31.6163984 89.2,31.6163984 C87.066656,31.6163984 86,30.5497424 86,28.4163984 C86,26.2830544 87.066656,25.2163984 89.2,25.2163984 C91.333344,25.2163984 92.4,26.2830544 92.4,28.4163984 Z M101.016,36.2243984 C101.016,38.2297418 100.013343,39.2323984 98.008,39.2323984 C96.0026566,39.2323984 95,38.2297418 95,36.2243984 C95,34.219055 96.0026566,33.2163984 98.008,33.2163984 C100.013343,33.2163984 101.016,34.219055 101.016,36.2243984 Z M116.248,52.8403984 C116.248,54.6324074 115.373342,55.5283984 113.624,55.5283984 C111.874658,55.5283984 111,54.6324074 111,52.8403984 C111,51.0910563 111.874658,50.2163984 113.624,50.2163984 C115.373342,50.2163984 116.248,51.0910563 116.248,52.8403984 Z M93.016,36.2243984 C93.016,38.2297418 92.0133434,39.2323984 90.008,39.2323984 C88.0026566,39.2323984 87,38.2297418 87,36.2243984 C87,34.219055 88.0026566,33.2163984 90.008,33.2163984 C92.0133434,33.2163984 93.016,34.219055 93.016,36.2243984 Z M108.248,52.8403984 C108.248,54.6324074 107.373342,55.5283984 105.624,55.5283984 C103.874658,55.5283984 103,54.6324074 103,52.8403984 C103,51.0910563 103.874658,50.2163984 105.624,50.2163984 C107.373342,50.2163984 108.248,51.0910563 108.248,52.8403984 Z M92.632,44.0323984 C92.632,45.9097411 91.6933427,46.8483984 89.816,46.8483984 C87.9386573,46.8483984 87,45.9097411 87,44.0323984 C87,42.1550557 87.9386573,41.2163984 89.816,41.2163984 C91.6933427,41.2163984 92.632,42.1550557 92.632,44.0323984 Z M100.248,52.8403984 C100.248,54.6324074 99.3733421,55.5283984 97.624,55.5283984 C95.8746579,55.5283984 95,54.6324074 95,52.8403984 C95,51.0910563 95.8746579,50.2163984 97.624,50.2163984 C99.3733421,50.2163984 100.248,51.0910563 100.248,52.8403984 Z M168.784,20.6083984 C168.784,22.869743 167.653345,24.0003984 165.392,24.0003984 C163.130655,24.0003984 162,22.869743 162,20.6083984 C162,18.3470538 163.130655,17.2163984 165.392,17.2163984 C167.653345,17.2163984 168.784,18.3470538 168.784,20.6083984 Z M176.4,28.4163984 C176.4,30.5497424 175.333344,31.6163984 173.2,31.6163984 C171.066656,31.6163984 170,30.5497424 170,28.4163984 C170,26.2830544 171.066656,25.2163984 173.2,25.2163984 C175.333344,25.2163984 176.4,26.2830544 176.4,28.4163984 Z M176.016,36.2243984 C176.016,38.2297418 175.013343,39.2323984 173.008,39.2323984 C171.002657,39.2323984 170,38.2297418 170,36.2243984 C170,34.219055 171.002657,33.2163984 173.008,33.2163984 C175.013343,33.2163984 176.016,34.219055 176.016,36.2243984 Z M151.784,20.6083984 C151.784,22.869743 150.653345,24.0003984 148.392,24.0003984 C146.130655,24.0003984 145,22.869743 145,20.6083984 C145,18.3470538 146.130655,17.2163984 148.392,17.2163984 C150.653345,17.2163984 151.784,18.3470538 151.784,20.6083984 Z M160.4,28.4163984 C160.4,30.5497424 159.333344,31.6163984 157.2,31.6163984 C155.066656,31.6163984 154,30.5497424 154,28.4163984 C154,26.2830544 155.066656,25.2163984 157.2,25.2163984 C159.333344,25.2163984 160.4,26.2830544 160.4,28.4163984 Z M175.632,44.0323984 C175.632,45.9097411 174.693343,46.8483984 172.816,46.8483984 C170.938657,46.8483984 170,45.9097411 170,44.0323984 C170,42.1550557 170.938657,41.2163984 172.816,41.2163984 C174.693343,41.2163984 175.632,42.1550557 175.632,44.0323984 Z M143.784,20.6083984 C143.784,22.869743 142.653345,24.0003984 140.392,24.0003984 C138.130655,24.0003984 137,22.869743 137,20.6083984 C137,18.3470538 138.130655,17.2163984 140.392,17.2163984 C142.653345,17.2163984 143.784,18.3470538 143.784,20.6083984 Z M160.016,36.2243984 C160.016,38.2297418 159.013343,39.2323984 157.008,39.2323984 C155.002657,39.2323984 154,38.2297418 154,36.2243984 C154,34.219055 155.002657,33.2163984 157.008,33.2163984 C159.013343,33.2163984 160.016,34.219055 160.016,36.2243984 Z M175.248,52.8403984 C175.248,54.6324074 174.373342,55.5283984 172.624,55.5283984 C170.874658,55.5283984 170,54.6324074 170,52.8403984 C170,51.0910563 170.874658,50.2163984 172.624,50.2163984 C174.373342,50.2163984 175.248,51.0910563 175.248,52.8403984 Z M144.4,28.4163984 C144.4,30.5497424 143.333344,31.6163984 141.2,31.6163984 C139.066656,31.6163984 138,30.5497424 138,28.4163984 C138,26.2830544 139.066656,25.2163984 141.2,25.2163984 C143.333344,25.2163984 144.4,26.2830544 144.4,28.4163984 Z M159.632,44.0323984 C159.632,45.9097411 158.693343,46.8483984 156.816,46.8483984 C154.938657,46.8483984 154,45.9097411 154,44.0323984 C154,42.1550557 154.938657,41.2163984 156.816,41.2163984 C158.693343,41.2163984 159.632,42.1550557 159.632,44.0323984 Z M144.016,36.2243984 C144.016,38.2297418 143.013343,39.2323984 141.008,39.2323984 C139.002657,39.2323984 138,38.2297418 138,36.2243984 C138,34.219055 139.002657,33.2163984 141.008,33.2163984 C143.013343,33.2163984 144.016,34.219055 144.016,36.2243984 Z M159.248,52.8403984 C159.248,54.6324074 158.373342,55.5283984 156.624,55.5283984 C154.874658,55.5283984 154,54.6324074 154,52.8403984 C154,51.0910563 154.874658,50.2163984 156.624,50.2163984 C158.373342,50.2163984 159.248,51.0910563 159.248,52.8403984 Z M143.632,44.0323984 C143.632,45.9097411 142.693343,46.8483984 140.816,46.8483984 C138.938657,46.8483984 138,45.9097411 138,44.0323984 C138,42.1550557 138.938657,41.2163984 140.816,41.2163984 C142.693343,41.2163984 143.632,42.1550557 143.632,44.0323984 Z M143.248,52.8403984 C143.248,54.6324074 142.373342,55.5283984 140.624,55.5283984 C138.874658,55.5283984 138,54.6324074 138,52.8403984 C138,51.0910563 138.874658,50.2163984 140.624,50.2163984 C142.373342,50.2163984 143.248,51.0910563 143.248,52.8403984 Z" id="Elem" fill="#7ED321"></path>
            <path d="M225.784,20.392 C225.784,22.6533446 224.653345,23.784 222.392,23.784 C220.130655,23.784 219,22.6533446 219,20.392 C219,18.1306554 220.130655,17 222.392,17 C224.653345,17 225.784,18.1306554 225.784,20.392 Z M233.656,28.456 C233.656,30.589344 232.589344,31.656 230.456,31.656 C228.322656,31.656 227.256,30.589344 227.256,28.456 C227.256,26.322656 228.322656,25.256 230.456,25.256 C232.589344,25.256 233.656,26.322656 233.656,28.456 Z M217.72,20.392 C217.72,22.6533446 216.589345,23.784 214.328,23.784 C212.066655,23.784 210.936,22.6533446 210.936,20.392 C210.936,18.1306554 212.066655,17 214.328,17 C216.589345,17 217.72,18.1306554 217.72,20.392 Z M233.464,36.52 C233.464,38.5253434 232.461343,39.528 230.456,39.528 C228.450657,39.528 227.448,38.5253434 227.448,36.52 C227.448,34.5146566 228.450657,33.512 230.456,33.512 C232.461343,33.512 233.464,34.5146566 233.464,36.52 Z M209.656,20.392 C209.656,22.6533446 208.525345,23.784 206.264,23.784 C204.002655,23.784 202.872,22.6533446 202.872,20.392 C202.872,18.1306554 204.002655,17 206.264,17 C208.525345,17 209.656,18.1306554 209.656,20.392 Z M225.4,36.52 C225.4,38.5253434 224.397343,39.528 222.392,39.528 C220.386657,39.528 219.384,38.5253434 219.384,36.52 C219.384,34.5146566 220.386657,33.512 222.392,33.512 C224.397343,33.512 225.4,34.5146566 225.4,36.52 Z M217.336,36.52 C217.336,38.5253434 216.333343,39.528 214.328,39.528 C212.322657,39.528 211.32,38.5253434 211.32,36.52 C211.32,34.5146566 212.322657,33.512 214.328,33.512 C216.333343,33.512 217.336,34.5146566 217.336,36.52 Z M201.4,28.456 C201.4,30.589344 200.333344,31.656 198.2,31.656 C196.066656,31.656 195,30.589344 195,28.456 C195,26.322656 196.066656,25.256 198.2,25.256 C200.333344,25.256 201.4,26.322656 201.4,28.456 Z M209.272,36.52 C209.272,38.5253434 208.269343,39.528 206.264,39.528 C204.258657,39.528 203.256,38.5253434 203.256,36.52 C203.256,34.5146566 204.258657,33.512 206.264,33.512 C208.269343,33.512 209.272,34.5146566 209.272,36.52 Z M225.016,52.648 C225.016,54.440009 224.141342,55.336 222.392,55.336 C220.642658,55.336 219.768,54.440009 219.768,52.648 C219.768,50.8986579 220.642658,50.024 222.392,50.024 C224.141342,50.024 225.016,50.8986579 225.016,52.648 Z M201.208,36.52 C201.208,38.5253434 200.205343,39.528 198.2,39.528 C196.194657,39.528 195.192,38.5253434 195.192,36.52 C195.192,34.5146566 196.194657,33.512 198.2,33.512 C200.205343,33.512 201.208,34.5146566 201.208,36.52 Z M216.952,52.648 C216.952,54.440009 216.077342,55.336 214.328,55.336 C212.578658,55.336 211.704,54.440009 211.704,52.648 C211.704,50.8986579 212.578658,50.024 214.328,50.024 C216.077342,50.024 216.952,50.8986579 216.952,52.648 Z M201.016,44.584 C201.016,46.4613427 200.077343,47.4 198.2,47.4 C196.322657,47.4 195.384,46.4613427 195.384,44.584 C195.384,42.7066573 196.322657,41.768 198.2,41.768 C200.077343,41.768 201.016,42.7066573 201.016,44.584 Z M208.888,52.648 C208.888,54.440009 208.013342,55.336 206.264,55.336 C204.514658,55.336 203.64,54.440009 203.64,52.648 C203.64,50.8986579 204.514658,50.024 206.264,50.024 C208.013342,50.024 208.888,50.8986579 208.888,52.648 Z" id="e" fill="#D7F4B9"></path>
            <path d="M278.976,19.904 C278.976,22.1653446 277.845345,23.296 275.584,23.296 C273.322655,23.296 272.192,22.1653446 272.192,19.904 C272.192,17.6426554 273.322655,16.512 275.584,16.512 C277.845345,16.512 278.976,17.6426554 278.976,19.904 Z M286.848,27.968 C286.848,30.101344 285.781344,31.168 283.648,31.168 C281.514656,31.168 280.448,30.101344 280.448,27.968 C280.448,25.834656 281.514656,24.768 283.648,24.768 C285.781344,24.768 286.848,25.834656 286.848,27.968 Z M270.912,19.904 C270.912,22.1653446 269.781345,23.296 267.52,23.296 C265.258655,23.296 264.128,22.1653446 264.128,19.904 C264.128,17.6426554 265.258655,16.512 267.52,16.512 C269.781345,16.512 270.912,17.6426554 270.912,19.904 Z M286.656,36.032 C286.656,38.0373434 285.653343,39.04 283.648,39.04 C281.642657,39.04 280.64,38.0373434 280.64,36.032 C280.64,34.0266566 281.642657,33.024 283.648,33.024 C285.653343,33.024 286.656,34.0266566 286.656,36.032 Z M262.848,19.904 C262.848,22.1653446 261.717345,23.296 259.456,23.296 C257.194655,23.296 256.064,22.1653446 256.064,19.904 C256.064,17.6426554 257.194655,16.512 259.456,16.512 C261.717345,16.512 262.848,17.6426554 262.848,19.904 Z M286.464,44.096 C286.464,45.9733427 285.525343,46.912 283.648,46.912 C281.770657,46.912 280.832,45.9733427 280.832,44.096 C280.832,42.2186573 281.770657,41.28 283.648,41.28 C285.525343,41.28 286.464,42.2186573 286.464,44.096 Z M254.784,19.904 C254.784,22.1653446 253.653345,23.296 251.392,23.296 C249.130655,23.296 248,22.1653446 248,19.904 C248,17.6426554 249.130655,16.512 251.392,16.512 C253.653345,16.512 254.784,17.6426554 254.784,19.904 Z M286.272,52.16 C286.272,53.952009 285.397342,54.848 283.648,54.848 C281.898658,54.848 281.024,53.952009 281.024,52.16 C281.024,50.4106579 281.898658,49.536 283.648,49.536 C285.397342,49.536 286.272,50.4106579 286.272,52.16 Z M254.592,27.968 C254.592,30.101344 253.525344,31.168 251.392,31.168 C249.258656,31.168 248.192,30.101344 248.192,27.968 C248.192,25.834656 249.258656,24.768 251.392,24.768 C253.525344,24.768 254.592,25.834656 254.592,27.968 Z M254.4,36.032 C254.4,38.0373434 253.397343,39.04 251.392,39.04 C249.386657,39.04 248.384,38.0373434 248.384,36.032 C248.384,34.0266566 249.386657,33.024 251.392,33.024 C253.397343,33.024 254.4,34.0266566 254.4,36.032 Z M254.208,44.096 C254.208,45.9733427 253.269343,46.912 251.392,46.912 C249.514657,46.912 248.576,45.9733427 248.576,44.096 C248.576,42.2186573 249.514657,41.28 251.392,41.28 C253.269343,41.28 254.208,42.2186573 254.208,44.096 Z M254.016,52.16 C254.016,53.952009 253.141342,54.848 251.392,54.848 C249.642658,54.848 248.768,53.952009 248.768,52.16 C248.768,50.4106579 249.642658,49.536 251.392,49.536 C253.141342,49.536 254.016,50.4106579 254.016,52.16 Z M333.12,19.904 C333.12,22.1653446 331.989345,23.296 329.728,23.296 C327.466655,23.296 326.336,22.1653446 326.336,19.904 C326.336,17.6426554 327.466655,16.512 329.728,16.512 C331.989345,16.512 333.12,17.6426554 333.12,19.904 Z M309.312,3.776 C309.312,6.29334592 308.053346,7.552 305.536,7.552 C303.018654,7.552 301.76,6.29334592 301.76,3.776 C301.76,1.25865408 303.018654,0 305.536,0 C308.053346,0 309.312,1.25865408 309.312,3.776 Z M325.056,19.904 C325.056,22.1653446 323.925345,23.296 321.664,23.296 C319.402655,23.296 318.272,22.1653446 318.272,19.904 C318.272,17.6426554 319.402655,16.512 321.664,16.512 C323.925345,16.512 325.056,17.6426554 325.056,19.904 Z M309.12,11.84 C309.12,14.2293453 307.925345,15.424 305.536,15.424 C303.146655,15.424 301.952,14.2293453 301.952,11.84 C301.952,9.45065472 303.146655,8.256 305.536,8.256 C307.925345,8.256 309.12,9.45065472 309.12,11.84 Z M316.992,19.904 C316.992,22.1653446 315.861345,23.296 313.6,23.296 C311.338655,23.296 310.208,22.1653446 310.208,19.904 C310.208,17.6426554 311.338655,16.512 313.6,16.512 C315.861345,16.512 316.992,17.6426554 316.992,19.904 Z M308.928,19.904 C308.928,22.1653446 307.797345,23.296 305.536,23.296 C303.274655,23.296 302.144,22.1653446 302.144,19.904 C302.144,17.6426554 303.274655,16.512 305.536,16.512 C307.797345,16.512 308.928,17.6426554 308.928,19.904 Z M332.544,44.096 C332.544,45.9733427 331.605343,46.912 329.728,46.912 C327.850657,46.912 326.912,45.9733427 326.912,44.096 C326.912,42.2186573 327.850657,41.28 329.728,41.28 C331.605343,41.28 332.544,42.2186573 332.544,44.096 Z M300.864,19.904 C300.864,22.1653446 299.733345,23.296 297.472,23.296 C295.210655,23.296 294.08,22.1653446 294.08,19.904 C294.08,17.6426554 295.210655,16.512 297.472,16.512 C299.733345,16.512 300.864,17.6426554 300.864,19.904 Z M308.736,27.968 C308.736,30.101344 307.669344,31.168 305.536,31.168 C303.402656,31.168 302.336,30.101344 302.336,27.968 C302.336,25.834656 303.402656,24.768 305.536,24.768 C307.669344,24.768 308.736,25.834656 308.736,27.968 Z M308.544,36.032 C308.544,38.0373434 307.541343,39.04 305.536,39.04 C303.530657,39.04 302.528,38.0373434 302.528,36.032 C302.528,34.0266566 303.530657,33.024 305.536,33.024 C307.541343,33.024 308.544,34.0266566 308.544,36.032 Z M324.288,52.16 C324.288,53.952009 323.413342,54.848 321.664,54.848 C319.914658,54.848 319.04,53.952009 319.04,52.16 C319.04,50.4106579 319.914658,49.536 321.664,49.536 C323.413342,49.536 324.288,50.4106579 324.288,52.16 Z M316.224,52.16 C316.224,53.952009 315.349342,54.848 313.6,54.848 C311.850658,54.848 310.976,53.952009 310.976,52.16 C310.976,50.4106579 311.850658,49.536 313.6,49.536 C315.349342,49.536 316.224,50.4106579 316.224,52.16 Z M308.352,44.096 C308.352,45.9733427 307.413343,46.912 305.536,46.912 C303.658657,46.912 302.72,45.9733427 302.72,44.096 C302.72,42.2186573 303.658657,41.28 305.536,41.28 C307.413343,41.28 308.352,42.2186573 308.352,44.096 Z" id="nt" fill="#D7F4B9"></path>
            <path d="M374.784,20.392 C374.784,22.6533446 373.653345,23.784 371.392,23.784 C369.130655,23.784 368,22.6533446 368,20.392 C368,18.1306554 369.130655,17 371.392,17 C373.653345,17 374.784,18.1306554 374.784,20.392 Z M366.72,20.392 C366.72,22.6533446 365.589345,23.784 363.328,23.784 C361.066655,23.784 359.936,22.6533446 359.936,20.392 C359.936,18.1306554 361.066655,17 363.328,17 C365.589345,17 366.72,18.1306554 366.72,20.392 Z M358.656,20.392 C358.656,22.6533446 357.525345,23.784 355.264,23.784 C353.002655,23.784 351.872,22.6533446 351.872,20.392 C351.872,18.1306554 353.002655,17 355.264,17 C357.525345,17 358.656,18.1306554 358.656,20.392 Z M374.4,36.52 C374.4,38.5253434 373.397343,39.528 371.392,39.528 C369.386657,39.528 368.384,38.5253434 368.384,36.52 C368.384,34.5146566 369.386657,33.512 371.392,33.512 C373.397343,33.512 374.4,34.5146566 374.4,36.52 Z M382.272,44.584 C382.272,46.4613427 381.333343,47.4 379.456,47.4 C377.578657,47.4 376.64,46.4613427 376.64,44.584 C376.64,42.7066573 377.578657,41.768 379.456,41.768 C381.333343,41.768 382.272,42.7066573 382.272,44.584 Z M366.336,36.52 C366.336,38.5253434 365.333343,39.528 363.328,39.528 C361.322657,39.528 360.32,38.5253434 360.32,36.52 C360.32,34.5146566 361.322657,33.512 363.328,33.512 C365.333343,33.512 366.336,34.5146566 366.336,36.52 Z M350.4,28.456 C350.4,30.589344 349.333344,31.656 347.2,31.656 C345.066656,31.656 344,30.589344 344,28.456 C344,26.322656 345.066656,25.256 347.2,25.256 C349.333344,25.256 350.4,26.322656 350.4,28.456 Z M358.272,36.52 C358.272,38.5253434 357.269343,39.528 355.264,39.528 C353.258657,39.528 352.256,38.5253434 352.256,36.52 C352.256,34.5146566 353.258657,33.512 355.264,33.512 C357.269343,33.512 358.272,34.5146566 358.272,36.52 Z M374.016,52.648 C374.016,54.440009 373.141342,55.336 371.392,55.336 C369.642658,55.336 368.768,54.440009 368.768,52.648 C368.768,50.8986579 369.642658,50.024 371.392,50.024 C373.141342,50.024 374.016,50.8986579 374.016,52.648 Z M365.952,52.648 C365.952,54.440009 365.077342,55.336 363.328,55.336 C361.578658,55.336 360.704,54.440009 360.704,52.648 C360.704,50.8986579 361.578658,50.024 363.328,50.024 C365.077342,50.024 365.952,50.8986579 365.952,52.648 Z M357.888,52.648 C357.888,54.440009 357.013342,55.336 355.264,55.336 C353.514658,55.336 352.64,54.440009 352.64,52.648 C352.64,50.8986579 353.514658,50.024 355.264,50.024 C357.013342,50.024 357.888,50.8986579 357.888,52.648 Z" id="s" fill="#D7F4B9"></path>
        </g>
    </g>
</svg>